<?xml version="1.0" standalone="no"?>
<!DOCTYPE svg PUBLIC "-//W3C//DTD SVG 20010904//EN"
 "http://www.w3.org/TR/2001/REC-SVG-20010904/DTD/svg10.dtd">
<svg version="1.0" xmlns="http://www.w3.org/2000/svg"
 width="765.000000pt" height="765.000000pt" viewBox="0 0 765.000000 765.000000"
 preserveAspectRatio="xMidYMid meet">
<metadata>
Created by potrace 1.14, written by Peter Selinger 2001-2017
</metadata>
<g transform="translate(0.000000,765.000000) scale(0.100000,-0.100000)"
fill="#000000" stroke="none">
<path d="M2227 7260 c-207 -37 -421 -159 -554 -314 -53 -62 -103 -132 -103
-143 0 -4 -6 -14 -13 -22 -23 -27 -67 -136 -87 -216 -26 -103 -35 -181 -32
-300 2 -55 4 -176 5 -270 l2 -170 -30 2 c-16 0 -116 4 -220 8 l-191 8 -47 -81
c-26 -45 -47 -85 -47 -88 0 -4 -6 -15 -14 -23 -7 -9 -25 -36 -39 -61 -13 -25
-37 -67 -52 -93 -15 -26 -26 -50 -24 -52 6 -5 138 -14 314 -20 88 -3 194 -8
235 -12 41 -3 87 -5 103 -4 15 1 27 -4 28 -11 6 -72 10 -221 24 -753 3 -126 8
-293 10 -370 8 -223 11 -506 6 -511 -3 -2 -6 -11 -7 -19 -10 -65 -81 -202
-132 -253 -77 -77 -192 -140 -287 -157 -51 -10 -175 -13 -175 -5 0 4 -10 6
-22 5 -20 -1 -57 10 -138 43 -14 5 -29 9 -33 8 -5 0 -13 7 -18 17 -6 9 -16 17
-23 17 -18 0 -129 118 -151 160 -10 19 -23 38 -29 42 -6 4 -7 8 -2 8 5 0 4 6
-2 13 -23 28 -45 135 -45 222 -1 101 15 164 64 256 34 64 126 169 147 169 6 0
12 4 12 10 0 11 62 45 124 67 40 14 51 17 98 28 33 7 118 7 228 -1 52 -3 127
-7 165 -8 l70 -1 1 203 c0 162 -2 205 -13 209 -7 3 -79 6 -158 7 -80 0 -145 4
-145 7 0 7 -113 4 -180 -5 -47 -6 -85 -13 -85 -16 0 -1 -9 -3 -20 -5 -69 -12
-215 -75 -294 -127 -254 -166 -412 -442 -428 -748 -11 -224 45 -416 173 -596
41 -59 166 -194 179 -194 3 0 23 -13 43 -29 37 -29 62 -43 247 -141 55 -30
101 -57 103 -62 2 -4 12 -8 22 -8 9 0 23 -7 30 -15 7 -8 16 -13 20 -10 4 3 13
-2 20 -10 7 -8 18 -15 24 -15 6 0 19 -7 30 -15 18 -13 18 -15 -3 -43 -11 -16
-65 -100 -120 -186 l-100 -157 32 -57 c17 -31 48 -85 69 -120 21 -34 38 -65
38 -68 0 -3 16 -30 35 -60 19 -30 35 -58 35 -63 0 -5 6 -14 14 -20 11 -9 24 4
67 71 30 46 56 88 58 93 2 6 7 12 11 15 3 3 24 34 45 70 21 36 42 67 45 70 4
3 13 16 20 30 25 48 135 210 142 210 4 0 31 -13 60 -28 29 -16 98 -53 153 -82
55 -30 103 -58 106 -63 3 -5 10 -8 15 -8 5 1 17 -6 27 -14 9 -8 17 -13 17 -10
0 3 33 -13 73 -35 39 -22 92 -50 117 -63 114 -61 144 -78 156 -88 8 -6 14 -9
14 -5 0 3 17 -4 38 -17 20 -13 71 -41 112 -62 41 -22 77 -41 80 -45 3 -3 52
-30 110 -59 58 -30 112 -60 121 -67 8 -8 23 -14 32 -14 9 0 17 -3 17 -8 0 -4
32 -23 72 -42 121 -59 229 -181 277 -315 32 -91 33 -240 1 -335 -12 -36 -29
-73 -37 -82 -9 -10 -13 -18 -9 -18 10 0 -48 -75 -89 -117 -40 -41 -135 -103
-156 -103 -9 0 -22 -7 -29 -15 -7 -8 -16 -12 -21 -9 -5 3 -9 0 -9 -6 0 -6 -5
-8 -10 -5 -6 4 -19 3 -28 -1 -17 -7 -89 -16 -127 -15 -139 2 -275 60 -370 157
-74 76 -74 76 -108 146 -64 132 -68 319 -9 448 21 47 182 303 196 312 6 4 7 8
2 8 -5 0 -1 9 10 21 24 27 13 42 -61 83 -33 18 -78 43 -100 56 -22 13 -72 41
-112 62 l-72 39 -22 -42 c-12 -24 -28 -49 -35 -57 -8 -7 -14 -17 -14 -22 0 -5
-7 -15 -15 -23 -8 -8 -16 -21 -17 -28 -2 -8 -7 -19 -13 -25 -34 -40 -39 -48
-106 -173 -26 -48 -62 -153 -84 -246 -15 -60 -23 -195 -13 -201 5 -3 4 -13 -2
-23 -5 -10 -7 -20 -5 -23 3 -3 8 -25 11 -49 6 -52 43 -206 54 -228 4 -9 18
-38 31 -66 13 -27 27 -52 32 -53 4 -2 7 -8 7 -13 0 -19 82 -130 133 -182 62
-62 168 -147 185 -147 7 0 12 -4 12 -10 0 -5 6 -10 13 -10 7 0 19 -6 26 -12 6
-7 15 -13 19 -13 4 -1 23 -8 42 -17 65 -32 138 -57 144 -51 3 4 6 2 6 -3 0 -6
10 -10 23 -11 12 -1 33 -4 47 -7 59 -15 245 -27 265 -17 5 3 26 6 45 7 19 1
64 10 100 19 36 10 71 18 78 18 6 0 12 4 12 9 0 5 4 7 9 3 5 -3 12 -1 16 5 4
6 11 8 16 5 5 -4 9 -2 9 4 0 5 14 12 30 16 17 4 30 11 30 16 0 5 8 9 18 9 10
0 27 8 38 17 25 23 74 53 97 60 9 3 17 9 17 13 0 4 18 15 40 25 22 10 40 21
40 25 0 4 8 10 18 14 19 6 51 25 136 80 l58 38 24 -28 c22 -27 27 -39 22 -47
-2 -2 3 -11 10 -19 7 -8 36 -62 66 -119 30 -57 64 -122 75 -144 l22 -40 182 2
c100 1 203 2 230 2 43 1 57 13 36 31 -3 3 -25 43 -48 90 -24 47 -64 122 -88
167 -24 46 -41 83 -36 83 4 0 4 4 -2 8 -5 4 -21 27 -34 52 -76 145 -93 181
-90 184 13 10 131 86 135 86 8 0 89 55 92 63 2 4 8 7 13 7 6 0 34 16 64 35 30
19 55 32 55 29 0 -3 7 1 15 8 29 27 62 47 118 76 15 7 27 18 27 24 0 6 3 9 6
5 4 -3 21 5 39 18 17 14 37 25 43 25 7 0 12 5 12 10 0 6 5 10 11 10 6 0 41 19
77 43 36 23 66 40 66 37 1 -3 13 5 26 18 14 12 35 25 47 28 13 4 23 10 23 14
0 5 8 11 19 15 10 3 31 17 47 30 15 13 30 22 32 20 3 -2 11 3 19 11 8 8 18 12
23 9 4 -3 10 2 14 10 3 8 10 15 16 15 6 0 37 17 68 38 192 128 332 195 393
188 16 -2 29 0 29 4 0 4 25 7 55 7 30 -1 55 -4 55 -7 0 -3 15 -6 33 -7 29 -1
68 -8 75 -13 1 -2 7 -4 12 -5 6 -1 12 -4 15 -5 6 -3 12 -5 43 -15 12 -4 22
-11 22 -16 0 -5 6 -9 13 -9 30 0 194 -160 179 -175 -3 -3 -1 -5 5 -5 10 0 26
-36 24 -52 -1 -5 3 -8 8 -8 5 0 14 -21 20 -47 6 -27 14 -59 18 -73 10 -41 6
-199 -6 -213 -6 -8 -8 -17 -5 -20 4 -3 3 -14 -1 -24 -5 -10 -9 -20 -10 -23 -8
-30 -31 -80 -37 -80 -4 0 -8 -5 -8 -11 0 -21 -130 -171 -130 -151 0 4 -4 1 -8
-6 -11 -17 -163 -93 -174 -86 -4 3 -8 1 -8 -4 0 -11 -1 -11 -120 -15 -52 -2
-102 0 -111 4 -9 5 -31 10 -48 11 -17 1 -31 6 -31 11 0 5 -7 7 -15 3 -8 -3
-15 -2 -15 2 0 4 -20 16 -45 27 -25 11 -45 24 -45 29 0 5 -3 7 -6 3 -18 -17
-184 171 -184 209 0 6 -7 17 -15 24 -8 7 -12 16 -9 21 3 5 0 9 -6 9 -6 0 -8 5
-5 10 3 6 2 10 -4 10 -9 0 -21 26 -20 44 0 5 -4 12 -10 15 -11 7 -55 102 -53
114 1 4 -2 7 -7 7 -5 0 -13 9 -16 20 -6 20 -45 29 -45 10 0 -5 -4 -10 -10 -10
-8 0 -56 -27 -140 -78 -14 -9 -26 -15 -28 -13 -2 1 -18 -8 -35 -21 -18 -14
-51 -35 -73 -47 l-42 -23 46 -92 c25 -50 52 -99 60 -108 8 -10 11 -18 6 -18
-5 0 -4 -4 1 -8 6 -4 25 -37 44 -74 19 -38 38 -68 43 -68 4 0 8 -6 8 -13 0 -7
9 -23 20 -35 11 -12 20 -25 20 -29 1 -12 128 -135 180 -175 59 -45 176 -109
184 -101 3 4 6 2 6 -4 0 -5 19 -16 43 -23 23 -8 48 -18 55 -23 6 -5 12 -7 12
-4 0 3 15 1 33 -4 43 -14 72 -19 132 -23 28 -2 52 -5 55 -6 12 -5 140 -5 140
0 0 3 12 5 28 5 15 -1 46 4 70 11 23 7 42 10 42 8 0 -9 151 52 226 91 75 39
109 63 155 107 9 9 19 15 21 14 2 -2 20 15 40 36 21 21 36 38 34 38 -2 0 12
16 30 36 19 19 34 39 34 44 0 5 11 21 25 36 14 15 25 33 25 40 0 7 4 14 8 16
8 3 71 141 78 170 7 30 12 51 23 86 5 18 10 35 10 37 1 3 1 6 2 8 13 40 11
517 -3 517 -4 0 -3 13 2 29 5 19 4 33 -3 40 -7 7 -7 11 -1 11 5 0 8 15 6 34
l-4 35 123 -5 c321 -12 318 -12 335 8 10 10 13 18 8 18 -5 0 -4 4 1 8 12 8 24
27 156 262 27 47 49 88 49 91 0 4 -20 6 -45 4 -25 -1 -45 1 -45 4 0 4 -53 6
-117 6 -65 0 -122 2 -128 5 -5 2 -51 5 -100 5 -50 1 -96 4 -102 8 -6 4 -14 3
-18 -3 -4 -6 -12 -7 -18 -3 -11 7 -24 9 -92 12 -23 1 -21 -27 -29 301 -3 118
-8 289 -10 380 -14 512 -17 631 -18 785 0 174 3 203 27 261 8 19 11 34 7 34
-4 0 -2 4 3 8 6 4 19 24 30 45 11 22 30 50 43 63 12 14 22 27 22 30 0 9 132
114 144 114 2 0 21 8 42 17 22 9 41 17 44 18 128 37 232 36 342 -3 84 -30 142
-68 209 -134 56 -57 120 -165 135 -228 9 -37 20 -140 19 -170 -4 -67 -17 -140
-26 -140 -6 0 -8 -4 -5 -9 3 -5 -8 -36 -25 -70 -34 -69 -143 -187 -199 -217
-19 -11 -38 -23 -41 -27 -3 -5 -9 -8 -13 -7 -4 1 -21 -4 -39 -10 -81 -31 -172
-39 -309 -27 -27 2 -48 -1 -48 -6 0 -6 -5 -6 -12 0 -7 5 -35 11 -63 12 -27 2
-67 4 -88 5 -21 1 -41 -2 -44 -7 -9 -14 -9 -188 -1 -193 4 -3 3 -16 -2 -29 -6
-16 -6 -34 0 -50 7 -17 6 -25 -1 -25 -8 0 -8 -4 0 -13 8 -10 7 -17 -1 -25 -7
-7 -8 -12 -2 -12 6 0 9 -13 8 -30 -1 -16 1 -30 4 -31 17 -3 105 -8 185 -10 54
-2 87 -7 87 -13 0 -7 3 -6 8 1 5 8 19 9 44 4 20 -5 39 -7 41 -4 3 2 39 6 80 8
41 3 86 9 100 14 14 5 27 8 30 5 2 -2 17 1 33 7 16 7 34 13 39 14 6 1 13 3 18
5 4 1 10 3 15 5 95 27 284 143 355 219 88 94 154 176 140 176 -4 0 -3 4 3 8
15 9 60 100 89 177 68 180 70 442 4 623 -11 31 -22 63 -23 70 -1 7 -8 18 -14
24 -7 7 -12 17 -12 22 0 12 -65 119 -94 156 -27 33 -155 161 -181 180 -31 23
-117 76 -150 92 -36 17 -137 73 -182 100 -18 11 -33 16 -33 11 0 -4 -4 -3 -8
3 -4 6 -38 28 -77 49 -38 20 -73 39 -77 42 -9 5 12 53 24 53 4 0 8 5 8 10 0 6
9 23 19 38 46 66 137 209 147 233 7 15 17 30 23 33 9 6 5 35 -8 46 -3 3 -14
21 -24 40 -31 59 -52 95 -57 100 -5 5 -13 19 -58 99 -42 76 -72 121 -80 121
-4 0 -23 -26 -42 -57 -18 -32 -48 -78 -65 -103 -17 -25 -46 -70 -64 -100 -19
-30 -39 -58 -45 -62 -6 -4 -8 -8 -4 -8 4 0 -13 -29 -37 -65 -25 -36 -45 -68
-45 -71 0 -5 -35 -57 -58 -86 -13 -15 -20 -13 -90 24 -43 22 -103 56 -135 74
-32 19 -65 34 -73 34 -7 0 -14 4 -14 9 0 5 -10 13 -21 16 -12 4 -47 22 -78 40
-31 17 -92 51 -136 75 -121 65 -205 110 -260 140 -55 31 -153 84 -260 141 -38
21 -90 49 -115 62 -25 14 -81 44 -125 67 -112 59 -177 111 -225 180 -13 19
-27 37 -30 40 -6 5 -18 33 -21 48 0 4 -4 12 -9 17 -10 14 -35 88 -32 99 2 4
-1 13 -6 20 -5 6 -7 52 -5 101 4 109 6 124 21 153 7 12 10 22 7 22 -3 0 4 17
15 37 11 21 20 41 20 46 0 5 6 14 13 22 6 7 21 25 32 41 54 76 154 146 265
186 79 29 243 28 323 -1 71 -25 171 -85 212 -126 37 -36 101 -127 97 -137 -1
-5 3 -8 9 -8 5 0 7 -4 4 -10 -3 -5 -1 -10 6 -10 7 0 9 -3 6 -6 -3 -4 -2 -15 4
-26 10 -18 13 -29 25 -88 7 -35 7 -170 0 -200 -3 -14 -8 -36 -11 -49 -10 -52
-160 -314 -220 -383 -8 -10 -17 -28 -20 -41 -6 -21 4 -29 100 -83 58 -32 118
-65 133 -73 15 -8 29 -17 32 -20 3 -3 22 -14 43 -24 39 -18 57 -16 57 7 0 7 9
21 20 31 11 10 20 23 20 28 0 6 11 25 25 43 14 18 25 37 25 42 0 6 4 12 8 14
8 3 116 177 117 188 0 3 6 15 13 26 6 12 8 24 5 28 -3 3 -2 6 4 6 9 0 17 25
24 68 0 4 5 13 11 19 6 7 8 19 5 28 -4 8 -2 17 3 20 6 4 10 16 10 29 0 12 3
26 7 30 4 4 9 21 10 39 5 65 4 237 -1 246 -4 5 -9 31 -12 57 -3 27 -8 53 -12
59 -4 5 -8 19 -9 30 -9 56 -75 196 -136 285 -115 167 -306 304 -512 366 -82
25 -105 27 -260 28 -148 0 -181 -2 -250 -22 -70 -20 -261 -104 -275 -121 -8
-9 -127 -91 -133 -91 -3 0 -55 -32 -116 -70 -61 -39 -117 -73 -124 -75 -14 -6
-51 48 -40 59 3 3 1 6 -5 6 -7 0 -12 4 -12 10 0 5 -13 32 -30 60 -16 28 -30
57 -30 64 0 8 -7 19 -15 26 -8 7 -12 16 -9 21 3 5 0 9 -6 9 -6 0 -9 4 -6 9 4
5 3 11 -1 13 -5 1 -19 26 -33 53 l-26 50 -232 3 c-128 1 -232 -1 -232 -5 1 -5
14 -33 30 -63 17 -30 30 -60 30 -67 0 -6 3 -13 8 -15 4 -1 18 -25 32 -53 14
-27 42 -80 62 -117 20 -38 34 -68 31 -68 -3 0 0 -8 8 -17 8 -10 26 -40 39 -68
14 -27 27 -52 30 -55 3 -3 13 -22 22 -42 l17 -37 -27 -19 c-37 -26 -281 -176
-312 -192 -14 -7 -27 -16 -30 -19 -5 -7 -376 -236 -453 -280 -23 -13 -45 -29
-49 -35 -4 -6 -8 -7 -8 -2 0 5 -8 2 -17 -6 -10 -9 -90 -59 -178 -113 -88 -53
-178 -109 -200 -123 -67 -43 -104 -60 -173 -77 -81 -21 -222 -21 -277 0 -96
35 -137 54 -166 75 -48 34 -139 131 -139 147 0 7 -4 13 -9 13 -9 0 -35 54 -31
66 1 4 -2 10 -7 13 -17 11 -36 96 -40 178 -7 158 44 291 156 404 40 40 89 77
126 95 33 16 62 29 65 30 3 0 12 4 20 7 32 14 107 27 156 27 142 0 282 -57
379 -154 76 -77 81 -85 130 -181 22 -44 48 -92 58 -107 10 -16 15 -28 11 -28
-4 0 0 -8 8 -17 8 -10 20 -33 28 -50 7 -18 17 -33 22 -33 5 0 6 -5 3 -10 -15
-24 26 -19 71 8 27 16 104 62 172 101 67 40 122 79 122 87 0 8 -4 14 -10 14
-5 0 -10 9 -10 19 0 11 -3 21 -7 23 -5 2 -35 57 -68 122 -33 66 -77 146 -97
178 -21 32 -38 62 -39 66 -4 17 -180 182 -234 219 -85 57 -199 110 -291 134
-89 23 -323 34 -407 19z m1973 -1025 c8 -16 27 -51 42 -77 14 -25 24 -49 21
-52 -4 -3 0 -6 7 -6 7 0 11 -3 7 -6 -3 -3 5 -24 19 -45 13 -21 21 -39 18 -39
-4 0 -1 -6 5 -13 6 -8 25 -40 42 -73 54 -102 133 -224 146 -224 7 0 13 -6 13
-13 0 -7 28 -37 61 -67 34 -30 66 -60 73 -65 38 -34 221 -135 246 -135 12 0
83 -42 92 -55 4 -5 8 -6 8 -1 0 5 6 3 14 -3 8 -7 95 -53 193 -103 98 -49 181
-95 184 -100 3 -5 9 -9 13 -8 7 1 138 -70 146 -80 3 -3 48 -28 100 -55 52 -26
98 -53 102 -59 5 -6 8 -7 8 -1 0 7 3 7 8 0 4 -5 50 -32 102 -59 52 -27 111
-59 130 -71 19 -12 50 -27 68 -34 20 -9 32 -20 32 -32 0 -11 -3 -19 -8 -19 -4
0 -18 -20 -31 -45 -13 -25 -28 -45 -33 -45 -5 0 -7 -4 -4 -8 3 -5 -6 -20 -20
-35 -14 -15 -22 -27 -19 -27 7 0 -88 -144 -97 -148 -5 -2 -8 -8 -8 -13 0 -6
-16 -34 -35 -64 -19 -30 -32 -55 -28 -55 3 0 -1 -8 -9 -17 -13 -15 -50 -100
-54 -125 -1 -5 -3 -10 -4 -13 -1 -3 -4 -9 -5 -15 -1 -5 -3 -11 -4 -12 -1 -2
-4 -16 -7 -33 -5 -38 -12 -70 -14 -70 -11 0 -13 -180 -5 -445 8 -260 13 -463
19 -712 2 -108 7 -202 10 -207 4 -5 2 -12 -4 -16 -6 -4 -7 -12 -3 -18 8 -13
14 -244 7 -270 -3 -9 -9 -15 -14 -12 -5 3 -59 7 -120 9 -62 3 -114 7 -117 10
-4 3 -12 1 -20 -5 -7 -6 -13 -8 -13 -3 0 5 -33 9 -73 8 -39 0 -80 3 -89 8 -12
6 -18 5 -18 -2 0 -6 -5 -8 -12 -4 -14 9 -78 11 -78 3 0 -3 -17 -6 -37 -6 -50
0 -114 -11 -162 -28 -22 -7 -42 -11 -45 -8 -3 4 -6 0 -6 -7 0 -7 -3 -11 -6 -7
-4 3 -19 0 -35 -9 -16 -8 -29 -11 -29 -8 0 4 -9 -1 -20 -11 -11 -10 -20 -15
-20 -11 0 3 -18 -5 -40 -19 -22 -14 -43 -25 -48 -25 -4 0 -17 -8 -28 -18 -31
-29 -84 -64 -84 -56 0 4 -9 -3 -20 -16 -11 -13 -20 -20 -20 -17 0 6 -112 -61
-137 -83 -7 -5 -15 -10 -18 -10 -4 0 -26 -13 -50 -30 -24 -16 -46 -30 -49 -30
-9 0 -120 -73 -127 -83 -3 -5 -10 -9 -15 -9 -5 -1 -25 -11 -44 -23 -19 -12
-51 -30 -70 -41 -19 -10 -37 -21 -40 -24 -11 -11 -112 -70 -120 -70 -5 0 -10
-4 -12 -8 -1 -5 -43 -33 -93 -63 -49 -29 -91 -57 -93 -61 -2 -4 -10 -8 -18 -8
-8 0 -14 -5 -14 -11 0 -5 -4 -8 -9 -4 -6 3 -14 -3 -20 -12 -6 -10 -11 -14 -11
-10 0 5 -12 0 -27 -11 -16 -10 -35 -22 -43 -25 -8 -4 -38 -22 -67 -41 l-51
-35 -11 27 c-6 15 -33 68 -60 117 -27 50 -47 93 -44 98 2 4 0 7 -6 7 -5 0 -15
16 -22 35 -7 19 -17 35 -22 35 -4 0 -5 5 -2 10 3 6 1 10 -5 10 -6 0 -8 5 -5
10 3 6 1 10 -5 10 -6 0 -8 5 -5 10 3 6 2 10 -2 10 -5 0 -17 20 -28 45 -11 25
-23 45 -27 45 -5 0 -8 5 -8 11 0 18 -97 139 -154 192 -71 67 -217 163 -250
165 -5 0 -12 4 -15 9 -3 4 -31 21 -61 37 -30 16 -57 32 -60 35 -3 3 -11 7 -19
9 -8 2 -27 12 -43 23 -15 11 -28 17 -28 12 0 -4 -4 -3 -8 2 -4 6 -27 21 -52
34 -25 13 -81 42 -125 66 -44 24 -96 51 -115 61 -19 11 -37 21 -40 24 -3 3
-25 15 -50 27 -56 28 -188 99 -217 119 -13 8 -23 11 -23 7 0 -5 -4 -3 -8 2 -8
11 -20 18 -182 103 -58 30 -117 64 -132 74 -14 10 -29 18 -31 18 -3 0 -22 9
-41 21 l-35 20 24 37 c13 20 31 45 39 55 9 9 16 19 16 22 0 9 84 140 95 147 6
5 6 8 0 8 -5 0 -2 5 8 11 9 5 17 15 17 20 0 6 14 30 30 54 17 24 30 48 30 54
0 6 5 11 11 11 5 0 8 4 4 9 -3 6 3 14 12 20 10 6 14 11 10 11 -5 0 -1 12 7 28
39 68 76 194 92 312 7 56 8 198 1 235 -3 11 0 26 6 33 6 7 6 12 0 12 -5 0 -10
33 -10 73 -1 137 -13 592 -18 677 -2 47 -6 200 -7 340 l-3 255 70 -1 c39 -1
124 -5 190 -10 151 -9 380 -11 420 -2 95 20 286 92 293 110 2 4 8 8 13 8 6 0
22 8 37 19 44 30 241 151 246 151 5 0 71 42 91 57 6 5 73 46 150 92 77 47 169
103 205 126 36 23 81 50 100 61 19 10 37 22 40 25 5 5 206 129 260 160 14 8
27 17 30 20 3 3 29 18 58 34 29 16 57 34 63 41 13 16 26 5 49 -41z"/>
<path d="M4366 5413 c-2 -2 -16 -6 -31 -9 -39 -7 -75 -27 -118 -66 -40 -37
-90 -125 -83 -145 3 -7 2 -13 -3 -13 -11 0 -3 -105 11 -138 6 -15 11 -30 10
-34 -1 -6 82 -94 109 -114 79 -59 269 -43 330 27 9 10 19 16 22 13 3 -3 8 4
12 15 3 12 11 21 16 21 5 0 9 7 9 15 0 9 7 18 15 21 8 4 12 10 9 15 -3 5 -2
15 3 22 11 18 14 35 15 99 1 90 -54 188 -127 225 -16 9 -32 19 -35 23 -9 14
-153 34 -164 23z"/>
<path d="M3195 5063 c-22 -2 -47 -7 -55 -10 -8 -3 -23 -7 -32 -8 -10 -2 -20
-4 -23 -5 -3 -1 -14 -4 -25 -5 -11 -1 -22 -4 -25 -5 -3 -1 -9 -4 -15 -5 -5 -1
-11 -3 -12 -5 -4 -2 -41 -11 -55 -12 -7 -1 -13 -5 -13 -10 0 -4 -7 -8 -15 -8
-8 0 -40 -12 -72 -27 -32 -14 -61 -25 -65 -25 -5 1 -8 -3 -8 -9 0 -5 -4 -8 -9
-5 -5 4 -11 3 -13 -1 -3 -8 -50 -36 -105 -62 -18 -8 -33 -19 -33 -23 0 -4 -7
-8 -15 -8 -8 0 -15 -4 -15 -10 0 -5 -7 -10 -15 -10 -9 0 -18 -6 -21 -14 -3 -8
-16 -17 -30 -20 -26 -7 -31 -27 -11 -48 6 -7 13 -18 14 -23 2 -11 67 -124 82
-141 5 -7 7 -15 4 -18 -4 -3 -1 -6 5 -6 7 0 12 -4 12 -9 0 -5 10 -27 23 -50
l23 -41 34 28 c19 15 42 35 52 45 10 9 21 17 26 17 4 0 20 11 36 25 16 14 35
25 43 25 7 0 13 3 13 8 0 4 12 13 28 20 49 25 162 71 162 67 0 -2 19 2 43 8
33 10 212 16 212 7 0 -1 12 -4 27 -6 15 -3 39 -11 55 -19 15 -8 34 -15 41 -15
6 0 12 -4 12 -10 0 -5 5 -10 10 -10 16 0 80 -61 80 -77 0 -7 4 -13 9 -13 9 0
29 -48 36 -88 2 -9 4 -17 6 -17 7 0 4 -102 -4 -112 -6 -9 -6 -13 3 -13 10 0
10 -3 0 -15 -7 -8 -9 -15 -5 -15 4 0 2 -7 -5 -15 -7 -8 -9 -15 -6 -15 4 0 0
-10 -8 -22 -9 -12 -16 -30 -16 -40 0 -10 -3 -18 -8 -18 -4 0 -16 -17 -27 -37
-11 -21 -27 -47 -35 -58 -26 -34 -160 -166 -160 -158 0 4 -4 3 -8 -3 -10 -15
-118 -86 -167 -110 -22 -10 -43 -23 -46 -27 -3 -4 -10 -7 -15 -5 -5 1 -19 -3
-32 -10 -21 -12 -127 -49 -162 -57 -8 -2 -15 -4 -15 -5 0 -2 -29 -8 -84 -16
-25 -3 -50 -11 -56 -18 -19 -20 -56 -76 -50 -76 3 0 -6 -12 -20 -27 -14 -16
-28 -36 -31 -45 -3 -10 -9 -18 -13 -18 -5 0 -14 -13 -21 -30 -7 -16 -16 -30
-19 -30 -4 0 -17 -18 -30 -40 -12 -22 -28 -46 -35 -53 -7 -7 -21 -27 -30 -45
-9 -18 -21 -32 -27 -32 -6 0 -7 -5 -4 -10 3 -6 1 -10 -4 -10 -6 0 -11 -7 -11
-15 0 -8 -4 -15 -9 -15 -5 0 -11 -9 -14 -19 -5 -21 -2 -21 93 -2 25 5 48 7 52
5 4 -2 9 0 13 6 3 5 21 10 39 10 18 0 36 3 40 8 4 4 20 8 34 9 26 2 67 10 67
13 0 3 39 10 67 13 16 1 28 6 28 10 0 4 6 7 13 6 6 -1 19 1 27 4 8 3 42 13 75
22 85 23 107 30 135 44 8 4 23 7 33 5 9 -1 17 2 17 7 0 5 7 9 15 9 8 0 44 14
80 30 36 17 70 30 75 30 6 0 10 5 10 12 0 6 3 9 6 5 3 -3 40 15 82 41 80 48
91 56 123 85 10 9 19 15 19 12 0 -3 11 4 23 17 13 13 37 35 53 50 40 37 73 73
129 143 26 32 54 65 62 73 7 7 10 18 7 24 -4 7 -2 8 4 4 11 -6 16 6 13 27 0 4
6 7 15 7 8 0 13 4 10 8 -3 5 3 18 14 29 10 12 17 23 14 26 -2 2 2 10 11 17 8
7 15 21 15 30 0 10 5 20 11 22 5 2 12 12 14 23 2 11 4 22 5 25 1 3 2 8 1 13 0
4 3 7 7 7 4 0 9 12 10 26 1 14 5 31 9 37 11 17 14 58 14 162 -1 77 -5 130 -11
130 -1 0 -4 14 -6 30 -3 17 -7 37 -11 45 -3 8 -8 22 -10 30 -2 8 -5 20 -7 25
-11 40 -86 170 -122 212 -11 12 -26 30 -35 40 -33 39 -148 126 -174 133 -5 2
-21 7 -35 11 -14 5 -29 9 -34 8 -5 0 -12 4 -15 9 -3 6 -23 13 -45 16 -21 4
-42 8 -46 11 -10 6 -212 12 -265 8z"/>
<path d="M4878 4605 c-2 -2 -23 -6 -48 -8 -25 -3 -61 -9 -80 -12 -19 -4 -39
-8 -45 -8 -5 -1 -12 -4 -15 -7 -3 -4 -25 -12 -50 -19 -25 -7 -65 -22 -90 -34
-25 -12 -48 -20 -52 -19 -5 1 -8 -2 -8 -8 0 -5 -15 -16 -32 -23 -18 -8 -39
-21 -47 -30 -7 -10 -18 -17 -22 -17 -13 0 -72 -53 -159 -142 -89 -92 -100
-105 -100 -115 0 -5 -9 -15 -20 -23 -11 -8 -20 -20 -20 -26 0 -6 -11 -23 -25
-38 -13 -14 -24 -27 -23 -29 2 -2 -26 -49 -53 -89 -11 -15 -19 -34 -19 -42 0
-7 -7 -16 -15 -20 -8 -3 -15 -12 -15 -20 0 -9 -14 -42 -31 -73 -17 -32 -31
-59 -30 -61 1 -1 -6 -16 -14 -32 -9 -17 -12 -30 -8 -30 5 0 1 -5 -9 -10 -10
-6 -14 -18 -11 -30 3 -11 1 -20 -4 -20 -5 0 -10 -7 -11 -15 -1 -8 -3 -22 -4
-30 -1 -8 -5 -15 -10 -15 -4 0 -7 -3 -6 -7 1 -5 -7 -35 -17 -68 -11 -33 -19
-62 -20 -65 0 -3 -4 -10 -8 -17 -4 -6 -2 -15 4 -19 8 -4 8 -9 1 -13 -6 -4 -13
-19 -16 -34 -2 -14 -7 -30 -10 -35 -2 -4 -7 -26 -10 -47 -3 -22 -8 -59 -11
-83 -4 -24 -8 -49 -9 -55 -1 -7 -4 -16 -7 -22 -3 -5 -4 -34 -4 -62 1 -29 -1
-53 -4 -53 -3 0 -6 -67 -6 -150 0 -82 2 -150 5 -150 3 0 5 -20 5 -45 -1 -25 2
-45 5 -45 4 0 8 -36 13 -127 1 -18 5 -33 8 -33 4 0 10 -17 13 -37 4 -21 8 -47
10 -58 2 -11 6 -27 9 -35 11 -30 58 -176 62 -194 2 -10 9 -23 14 -30 5 -6 10
-15 12 -21 4 -22 23 -55 28 -52 3 1 18 9 34 16 15 8 27 18 27 23 0 4 6 8 14 8
7 0 19 7 26 15 7 8 16 13 20 10 4 -3 14 2 21 11 14 18 70 49 82 46 4 -1 7 3 7
8 0 6 10 15 23 20 32 15 80 45 79 50 0 3 -5 18 -11 33 -6 16 -8 33 -5 39 5 7
2 8 -6 3 -10 -6 -12 -4 -7 7 3 9 0 24 -8 34 -7 11 -13 22 -14 27 0 4 -1 8 -2
10 -2 6 -8 35 -14 66 -3 19 -8 38 -11 42 -2 4 -7 27 -10 51 -3 24 -8 50 -10
58 -10 26 -16 140 -16 255 1 99 7 220 12 220 1 0 3 16 5 35 4 42 13 91 26 145
5 22 12 50 14 62 3 12 10 34 15 49 6 14 8 30 4 35 -3 5 0 9 5 9 6 0 11 6 11
14 0 8 5 27 12 43 6 15 12 33 13 38 7 32 87 199 98 203 4 2 5 8 1 13 -3 5 0 9
6 9 6 0 9 4 6 8 -3 5 3 18 14 29 10 12 16 24 13 27 -4 3 -1 6 6 6 7 0 10 4 6
9 -3 6 2 14 11 19 9 5 14 11 12 13 -3 4 41 65 82 113 126 146 315 267 422 270
21 1 38 5 38 9 0 4 9 3 19 -3 36 -19 65 -11 89 23 12 18 22 37 22 41 0 4 11
19 25 34 14 15 25 30 25 34 0 5 25 47 55 93 30 47 55 90 55 95 0 6 5 10 12 10
29 0 -21 29 -77 45 -50 15 -257 30 -267 20z"/>
</g>
</svg>
